<?xml version="1.0" standalone="no"?>
<!DOCTYPE svg PUBLIC "-//W3C//DTD SVG 20010904//EN"
 "http://www.w3.org/TR/2001/REC-SVG-20010904/DTD/svg10.dtd">
<svg version="1.0" xmlns="http://www.w3.org/2000/svg"
 width="5431.000000pt" height="5431.000000pt" viewBox="0 0 5431.000000 5431.000000"
 preserveAspectRatio="xMidYMid meet">
<metadata>
Created by potrace 1.16, written by Peter Selinger 2001-2019
</metadata>
<g transform="translate(0.000000,5431.000000) scale(0.100000,-0.100000)"
fill="red" stroke="none">
<path d="M26335 54304 c-38 -2 -191 -8 -340 -14 -2936 -116 -5915 -737 -8664
-1805 -2030 -788 -3991 -1837 -5758 -3079 -1805 -1267 -3428 -2728 -4888
-4396 -1175 -1343 -2250 -2856 -3142 -4420 -2042 -3583 -3233 -7568 -3492
-11690 -41 -652 -46 -826 -46 -1745 0 -892 5 -1089 41 -1670 124 -2019 456
-3948 1009 -5870 1363 -4739 4026 -9048 7670 -12415 4581 -4232 10421 -6744
16620 -7149 606 -40 720 -43 1620 -48 915 -5 1201 0 1760 33 4569 264 8917
1643 12789 4057 2600 1621 4935 3699 6857 6102 3512 4389 5567 9738 5894
15335 35 611 40 790 40 1620 0 978 -15 1390 -81 2210 -430 5367 -2435 10449
-5793 14680 -958 1208 -2068 2380 -3231 3416 -4221 3755 -9478 6091 -15075
6698 -575 63 -1052 99 -1775 137 -188 10 -1853 21 -2015 13z m1870 -2943
c1467 -77 2607 -222 3912 -497 4930 -1037 9443 -3652 12839 -7440 3465 -3864
5573 -8736 6009 -13884 65 -770 80 -1157 80 -2050 0 -877 -15 -1274 -76 -2000
-430 -5158 -2510 -10004 -5957 -13880 -632 -710 -1405 -1476 -2117 -2099
-3575 -3127 -7928 -5100 -12610 -5715 -4044 -532 -8158 -25 -11930 1469 -3464
1371 -6578 3553 -9061 6346 -1841 2072 -3297 4420 -4324 6974 -90 223 -239
613 -285 745 -13 36 -64 180 -113 321 -638 1814 -1064 3830 -1231 5814 -63
750 -76 1088 -76 2025 0 938 12 1258 75 2020 617 7389 4655 14075 10940 18110
1295 832 2744 1570 4180 2130 2521 983 5116 1516 7885 1620 288 11 1604 4
1860 -9z"/>
<path d="M21180 40175 l0 -6715 -6710 0 -6710 0 0 -5975 0 -5975 6710 0 6710
0 0 -6710 0 -6710 5975 0 5975 0 0 6710 0 6710 6710 0 6710 0 0 5975 0 5975
-6710 0 -6710 0 0 6715 0 6715 -5975 0 -5975 0 0 -6715z"/>
</g>
</svg>
