<?xml version="1.0" standalone="no"?>
<!DOCTYPE svg PUBLIC "-//W3C//DTD SVG 20010904//EN"
 "http://www.w3.org/TR/2001/REC-SVG-20010904/DTD/svg10.dtd">
<svg version="1.0" xmlns="http://www.w3.org/2000/svg"
 width="339.000000pt" height="151.000000pt" viewBox="0 0 339.000000 151.000000"
 preserveAspectRatio="xMidYMid meet">
<metadata>
Created by potrace 1.16, written by Peter Selinger 2001-2019
</metadata>
<g transform="translate(0.000000,151.000000) scale(0.100000,-0.100000)"
fill="red" stroke="none">
<path d="M148 1285 c-4 -20 -1 -26 16 -30 11 -3 430 -4 931 -3 l910 3 3 28 3
27 -929 0 -930 0 -4 -25z"/>
<path d="M591 1153 c-53 -27 -91 -86 -91 -146 0 -100 69 -171 166 -171 95 0
168 74 166 170 0 55 -24 98 -74 134 -48 35 -112 40 -167 13z m109 -78 c0 -33
2 -35 35 -35 33 0 35 -2 35 -35 0 -33 -2 -35 -35 -35 -33 0 -35 -2 -35 -34 0
-36 -15 -48 -49 -39 -16 4 -21 13 -21 39 0 32 -2 34 -35 34 -33 0 -35 2 -35
35 0 33 2 35 35 35 33 0 35 2 35 35 0 33 2 35 35 35 33 0 35 -2 35 -35z"/>
<path d="M1230 960 l0 -170 129 0 c137 0 141 1 135 50 -1 14 -3 85 -3 158 l-1
132 -130 0 -130 0 0 -170z"/>
<path d="M150 680 l0 -80 1520 0 c1364 0 1520 2 1520 15 0 34 -49 63 -166 101
l-119 39 -1377 3 -1378 2 0 -80z"/>
<path d="M707 525 c-96 -36 -167 -133 -167 -227 0 -36 4 -48 15 -48 8 0 15 7
15 15 0 8 8 15 19 15 14 0 20 -10 25 -40 7 -45 52 -102 99 -127 44 -22 124
-20 173 5 45 23 89 80 99 129 7 33 35 47 35 18 0 -9 9 -15 21 -15 20 0 21 4
16 54 -9 90 -61 167 -142 208 -51 27 -156 33 -208 13z m144 -130 c37 -20 69
-70 69 -110 0 -70 -76 -134 -145 -121 -17 4 -46 22 -65 41 -27 28 -33 42 -33
78 0 51 22 89 66 111 41 20 70 20 108 1z"/>
<path d="M760 383 c-55 -20 -80 -80 -56 -137 16 -38 62 -66 107 -66 33 0 89
62 89 99 0 79 -69 130 -140 104z m79 -17 c28 -15 51 -53 51 -86 0 -10 -12 -33
-26 -50 -24 -27 -32 -31 -72 -28 -35 2 -49 9 -65 30 -30 40 -25 87 13 121 34
30 58 34 99 13z"/>
<path d="M2745 527 c-106 -42 -175 -136 -175 -238 0 -28 4 -39 15 -39 8 0 15
7 15 15 0 8 9 15 20 15 12 0 20 -7 20 -17 1 -39 40 -102 79 -128 76 -51 161
-50 228 1 36 27 73 91 73 124 0 13 7 20 20 20 11 0 20 -7 20 -15 0 -8 7 -15
15 -15 8 0 15 9 15 20 0 18 7 20 80 20 l80 0 0 48 c0 35 -6 54 -24 75 -22 25
-28 27 -104 27 -74 0 -83 2 -109 26 -68 65 -189 92 -268 61z m172 -161 c62
-67 35 -167 -52 -196 -74 -24 -155 34 -155 112 0 117 129 169 207 84z"/>
<path d="M2778 374 c-35 -18 -48 -43 -48 -89 0 -47 24 -81 66 -95 70 -23 134
22 134 95 0 47 -14 71 -50 90 -36 19 -67 19 -102 -1z m120 -30 c41 -47 25
-115 -34 -140 -84 -35 -160 60 -108 134 34 48 102 51 142 6z"/>
</g>
</svg>
